<svg width="33" height="39" viewBox="0 0 33 39" fill="none" xmlns="http://www.w3.org/2000/svg">
<path d="M28.875 0C29.969 0 31.0182 0.513615 31.7918 1.42785C32.5654 2.34209 33 3.58207 33 4.875V34.125C33 35.4179 32.5654 36.6579 31.7918 37.5721C31.0182 38.4864 29.969 39 28.875 39C27.781 39 26.7318 38.4864 25.9582 37.5721C25.1846 36.6579 24.75 35.4179 24.75 34.125L25.107 25.4814C25.5366 15.0812 15.9888 7.101 5.82982 9.36934C4.69671 9.62235 3.47488 9.86919 2.44739 9.32863C1.98996 9.08797 1.56908 8.74866 1.20819 8.32215C0.434597 7.40791 0 6.16793 0 4.875C0 3.58207 0.434597 2.34209 1.20819 1.42785C1.98177 0.513615 3.03098 0 4.125 0H28.875Z" fill="#575759"/>
</svg>
